# xmcd CD database file
# Copyright (C) 1996 Ti Kan
#
# Track frame offsets:
#  160
#  12762
#  25992
#  41882
#  56525
#  67587
#  84220
#  97122
#  112707
#  123982
#  137127
#  145517
#
# Disc length: 2067 seconds
#
# Revision: 1
# Processed by: cddbd v1.4b41PL1 Copyright (c) Steve Scherf et al.
# Submitted via: CDWizzard Release:4.12
#
DISCID=9008110c
DTITLE=Louisiana Red - Lowdown Back Porch Blues
DYEAR=1900
DGENRE=
TTITLE0=Red's Dream
TTITLE1=Working Man Blues
TTITLE2=I'm Louisiana Red
TTITLE3=Sweet Alesse
TTITLE4=Keep Your Hands Off My Woman
TTITLE5=I'm A Roaming Stranger
TTITLE6=Ride On Red, Ride On
TTITLE7=I Wonder Who
TTITLE8=The Seventh One
TTITLE9=Sad News
TTITLE10=Two Fifty Three
TTITLE11=Don't Cry
EXTD=
EXTT0=
EXTT1=
EXTT2=
EXTT3=
EXTT4=
EXTT5=
EXTT6=
EXTT7=
EXTT8=
EXTT9=
EXTT10=
EXTT11=
PLAYORDER=
